<?xml version="1.0" standalone="no"?><!DOCTYPE svg PUBLIC "-//W3C//DTD SVG 1.1//EN" "http://www.w3.org/Graphics/SVG/1.1/DTD/svg11.dtd"><svg t="1481198026613" class="icon" style="" viewBox="0 0 1024 1024" version="1.1" xmlns="http://www.w3.org/2000/svg" p-id="1056" xmlns:xlink="http://www.w3.org/1999/xlink" width="200" height="200"><defs><style type="text/css"></style></defs><path d="M 512 1023.97 c -282.771 0 -511.987 -229.216 -511.987 -511.987 c 0 -282.771 229.216 -511.987 511.987 -511.987 c 282.771 0 511.987 229.216 511.987 511.987 c 0 282.771 -229.216 511.987 -511.987 511.987 Z M 309.893 363.511 c 0 0 -60.2095 0 -60.2095 0 c 0 0 0 196.219 0 196.219 c 0 0 -0.818979 0 -0.818979 0 c 0 0 -122.083 -196.219 -122.083 -196.219 c 0 0 -63.9214 0 -63.9214 0 c 0 0 0 292.499 0 292.499 c 0 0 60.2355 0 60.2355 0 c 0 0 0 -195.809 0 -195.809 c 0 0 0.818979 0 0.818979 0 c 0 0 121.674 195.809 121.674 195.809 c 0 0 64.3054 0 64.3054 0 c 0 0 0 -292.499 0 -292.499 Z M 568.754 363.511 c 0 0 -218.772 0 -218.772 0 c 0 0 0 292.499 0 292.499 c 0 0 222.048 0 222.048 0 c 0 0 0 -54.0656 0 -54.0656 c 0 0 -157.718 0 -157.718 0 c 0 0 0 -71.7042 0 -71.7042 c 0 0 141.743 0 141.743 0 c 0 0 0 -49.9697 0 -49.9697 c 0 0 -141.743 0 -141.743 0 c 0 0 0 -62.6924 0 -62.6924 c 0 0 154.441 0 154.441 0 c 0 0 0 -54.0656 0 -54.0656 Z M 845.227 565.055 c 0 0 -0.818979 0 -0.818979 0 c 0 0 -49.9697 -201.544 -49.9697 -201.544 c 0 0 -60.2355 0 -60.2355 0 c 0 0 -50.7887 199.086 -50.7887 199.086 c 0 0 -0.818979 0 -0.818979 0 c 0 0 -46.2838 -199.086 -46.2838 -199.086 c 0 0 -64.3314 0 -64.3314 0 c 0 0 77.438 292.499 77.438 292.499 c 0 0 65.1243 0 65.1243 0 c 0 0 48.7408 -199.086 48.7408 -199.086 c 0 0 0.818979 0 0.818979 0 c 0 0 49.5857 199.086 49.5857 199.086 c 0 0 63.8964 0 63.8964 0 c 0 0 78.667 -292.499 78.667 -292.499 c 0 0 -63.1024 0 -63.1024 0 c 0 0 -47.9218 201.544 -47.9218 201.544 Z" p-id="1057" fill="#d81e06"></path></svg>